<?xml version="1.0" encoding="utf-8"?>
<!-- Generator: Adobe Illustrator 22.1.0, SVG Export Plug-In . SVG Version: 6.00 Build 0)  -->
<svg version="1.1" id="Layer_1" xmlns="http://www.w3.org/2000/svg" xmlns:xlink="http://www.w3.org/1999/xlink" x="0px" y="0px"
	 viewBox="0 0 500 500" style="enable-background:new 0 0 500 500;" xml:space="preserve">
<style type="text/css">
	.st0{fill:#FEF283;}
</style>
<g>
	<path class="st0" d="M338.4,193.2c-1.7-10.5-5.4-20.1-12-28.6c-6.8-8.8-15-16.2-24.5-22.1c-8-5-16.8-8.2-25.6-11.6
		c-0.4-0.1-0.8-0.2-1.2-0.3c-8.9-1.9-17.9-2.8-28.8-2.9c-2.9,0-7.6,0.3-12.2,0.8c-3.3,0.4-6.7,0.7-9.9,1.7
		c-5.3,1.6-10.5,3.4-15.6,5.4c-8.7,3.4-17,7.5-24.2,13.6c-7.8,6.7-15,14.1-21.1,22.4c-4.3,5.9-7.7,12.2-9.9,19.2
		c-0.7,2.4-1.1,4.9-1.7,7.4c-2.9,11.4-2.5,22.7,0.3,34c2.2,8.8,5.8,17.1,9.9,25.2c3.4,6.6,6.9,13.1,11.6,18.9
		c6.2,7.4,12.3,14.9,18.8,22.2c5.2,5.9,10.1,11.9,14.3,18.5c7.1,11.4,8.8,23.8,7.4,36.9c-0.3,2.7-0.9,5.4-1,8.2
		c-0.2,3.9,1,7,4.3,9.5c6,4.4,12.5,7.4,19.7,9.1c11.2,2.7,22.3,2.6,33.5,0.1c9.6-2.1,18.3-6,26-12c1.8-1.4,3.5-3,4.9-4.7
		c1.2-1.5,2.2-3.1,2.8-4.9c0.7-2.2,0.1-3.7-2-4.8c-4-2.2-6.2-5.6-6.6-10.2c-0.8-10.6,0.3-21.1,2.8-31.4c3.6-14.6,9.6-28.2,18-40.7
		c7.2-10.8,13.3-22.1,17.5-34.5C338.8,223.1,340.8,208.4,338.4,193.2z"/>
	<g id="iXOzcs.tif_2_">
		<g>
			<path d="M249.8,121.5c25.1,0.1,46.3,7.6,65,22.4c10.2,8.1,18.5,17.7,24.4,29.4c4.7,9.4,8,19.2,9.3,29.7c1.3,10.4,0.8,20.7-1.7,31
				c-1.8,7.5-4,14.7-7.4,21.7c-2.2,4.6-4.7,9-7.3,13.3c-4.3,7.2-9,14.3-13.1,21.7c-4.3,7.7-8.2,15.5-10.4,24.1
				c-1.8,6.9-2.9,13.9-2.8,21c0,4.4,1.3,8.3,4.2,11.7c1.6,1.8,3.1,3.8,4.2,5.9c1.4,2.7,1.5,5.4,0.3,8.3c-2.7,6.5-7.1,11.7-12.5,16.1
				c-4.1,3.3-8.6,6-13.3,8.2c-7.1,3.4-14.3,6.6-22.2,7.9c-12.2,2-24.3,1.5-35.8-3.5c-6.7-2.9-13-6.6-18.3-11.7
				c-3.4-3.2-6.1-7-7.2-11.6c-0.6-2.3-0.8-4.6-0.3-7c0.9-4.5,1.3-9,1.1-13.6c-0.2-9.6-3.2-18.3-8.3-26.4c-2.4-3.8-5.3-7.3-8.3-10.7
				c-8.1-9.2-16.2-18.4-23.6-28.3c-6.6-8.8-12.5-18.1-16.9-28.2c-3.1-7-5.5-14.2-6.8-21.7c-1.1-6.1-1.1-12.2-0.8-18.4
				c0.4-7,1.6-13.9,3.3-20.6c1.1-4.6,3.1-9,5.4-13.1c13.1-23.4,32.1-40.1,57.4-49.3c7.6-2.8,15.4-5.1,23.4-6.5
				C237.6,122.2,244.3,121.6,249.8,121.5z M246.7,136.3c-2.7,0-7.2,0.3-11.7,0.8c-3.2,0.4-6.4,0.7-9.5,1.6c-5.1,1.5-10.1,3.2-15,5.2
				c-8.3,3.2-16.3,7.2-23.2,13c-7.5,6.4-14.4,13.5-20.2,21.5c-4.1,5.6-7.4,11.7-9.5,18.4c-0.7,2.3-1,4.7-1.6,7.1
				c-2.8,10.9-2.4,21.8,0.3,32.6c2.1,8.5,5.5,16.4,9.5,24.1c3.3,6.3,6.6,12.6,11.1,18.1c5.9,7.1,11.8,14.3,18,21.3
				c5,5.6,9.7,11.4,13.7,17.8c6.8,10.9,8.5,22.9,7.1,35.4c-0.3,2.6-0.9,5.2-1,7.9c-0.2,3.7,1,6.8,4.1,9.1c5.7,4.2,12,7.1,18.9,8.7
				c10.7,2.6,21.4,2.5,32.2,0.1c9.2-2,17.5-5.7,24.9-11.5c1.7-1.4,3.4-2.8,4.7-4.6c1.1-1.4,2.1-2.9,2.6-4.7c0.7-2.1,0.1-3.6-1.9-4.6
				c-3.9-2.1-6-5.4-6.3-9.8c-0.8-10.2,0.3-20.3,2.7-30.2c3.5-14,9.2-27,17.2-39.1c6.9-10.4,12.7-21.2,16.7-33.1
				c4.7-13.8,6.6-27.9,4.2-42.4c-1.6-10.1-5.2-19.3-11.5-27.4c-6.6-8.4-14.4-15.5-23.5-21.2c-7.7-4.8-16.2-7.9-24.6-11.1
				c-0.4-0.1-0.8-0.2-1.1-0.3C265.8,137.2,257.2,136.3,246.7,136.3z"/>
			<path d="M267.4,483c-3.7-0.2-7.2-0.9-10.3-2.8c-1.5-0.9-2.8-2.1-3.7-3.6c-0.5-0.8-1-1.6-1.5-2.4c-1-1.5-2.2-2.5-4-3
				c-5.7-1.5-9.9-5.3-13.4-10c-2.4-3.2-3.7-6.8-4.5-10.6c-0.2-1.1-0.2-2.1,0-3.2c0.4-1.9,2-2.9,3.6-2c5.9,3.1,12.4,3.5,18.8,3.9
				c9.9,0.6,19.7,0,29.4-2.2c3.9-0.9,7.7-2.2,11.3-3.9c2.1-1,4.3-2,6.4-3c1.3-0.6,2.5,0,2.5,1.4c0.2,8.1-1.7,15.5-7.9,21.3
				c-1.6,1.6-3.5,2.8-5.5,3.9c-1.5,0.8-2.6,1.9-3.2,3.5c-0.8,2.2-2,4.1-3.4,6c-2.5,3.4-5.9,5.5-10.1,6.1
				C270.4,482.8,268.9,483,267.4,483z"/>
			<path d="M257.1,419.6c-10,0.3-19.2-2.6-28-7c-2.5-1.3-5-2.6-7.3-4.1c-2.9-1.9-5-4.4-6.4-7.5c-0.6-1.3-0.9-2.7-1-4.1
				c-0.1-1.3,0.4-1.9,1.7-2c0.8-0.1,1.6,0.1,2.3,0.5c2.1,1,4.2,2,6.2,3.1c4.9,2.6,10,4.6,15.5,5.5c5.9,1,11.9,2.1,17.9,2.1
				c7.2-0.1,14.2-1.7,21-3.8c9-2.8,17.4-6.9,25.5-11.8c1.7-1.1,3.6-1.6,5.6-1.5c2.4,0.1,3.6,1.1,4.2,3.4c0.4,1.6,0.3,3.2-0.6,4.7
				c-1.3,2.2-2.9,4-4.9,5.5c-6.5,5-13.5,9-21.4,11.6c-8.2,2.7-16.6,4.7-25.2,5.3c-0.6,0-1.2,0.1-1.9,0.1
				C259.3,419.6,258.2,419.6,257.1,419.6z"/>
			<path d="M260.4,441.5c-9.7,0.2-19-1.6-27.7-6c-4.1-2.1-7.8-4.7-11-8c-1.4-1.5-2.6-3.1-3-5.2c-0.4-2.4-0.1-3.1,2.8-2.6
				c0.5,0.1,0.9,0.4,1.4,0.6c10.9,5.8,22.5,8.8,34.8,8.9c7.3,0.1,14.3-1.2,21.3-3.4c9-2.7,17.5-6.4,25.4-11.5c1.5-1,3.3-1.5,5-1.9
				c2-0.5,3.7,0.7,4,2.8c0.3,1.8,0.2,3.6-0.6,5.3c-1,1.9-2.2,3.5-3.7,5c-2.7,2.6-5.7,4.6-9,6.2c-3.7,1.7-7.3,3.6-11.2,4.7
				c-7.4,2.1-14.8,4.4-22.5,4.9C264.3,441.6,262.3,441.5,260.4,441.5z"/>
			<path d="M218.5,37.8c0-2.2-0.1-4.6,0.2-7c0.3-1.8,1-3.5,2.4-4.7c1.7-1.5,3.4-1.4,4.9,0.3c1,1.1,1.5,2.5,1.9,3.9
				c0.8,2.8,1,5.8,1.3,8.7c1,10.4,2,20.8,3,31.3c0.4,4.3,0.7,8.5,1,12.8c0.1,1.9,0,3.7-0.4,5.5c-0.5,1.8-1.8,2.8-3.7,2.9
				c-1.7,0-2.6-0.5-3.3-2.1c-1-2.3-1.4-4.7-1.9-7.2c-1.2-6-1.9-12.1-2.7-18.2c-0.9-6.6-1.7-13.2-2.2-19.8
				C218.7,42.1,218.6,40,218.5,37.8z"/>
			<path d="M110.7,68.5c0.1-1.7,0.3-3.3,2-4.2c1.6-0.9,3.1-0.1,4.4,0.7c2,1.3,3.6,3.1,5,5c4.6,6.2,9.3,12.3,13.9,18.5
				c4.3,5.7,8.5,11.5,12.7,17.3c1.2,1.6,2.4,3.3,3.3,5.1c0.5,0.9,1,1.9,1.3,2.9c0.6,2.1-0.4,4-2.4,4.8c-1.1,0.4-2.1,0.3-3-0.4
				c-1.5-1.2-2.9-2.5-4.2-3.9c-3.8-4.1-7.3-8.4-10.8-12.8c-5.4-6.7-10.7-13.4-15.6-20.4c-1.8-2.6-3.6-5.3-5.1-8.1
				C111,71.3,110.7,70,110.7,68.5z"/>
			<path d="M378.3,225.8c6.7,0.3,13.2,1.2,19.8,2.1c7,0.9,13.9,1.9,20.8,3.1c3.5,0.6,7,1.3,10.3,2.4c0.9,0.3,1.7,0.6,2.5,0.9
				c1.2,0.5,2.1,1.3,2.9,2.2c1.8,2.1,1.9,5.3-2,6.3c-1.9,0.5-3.9,0.5-5.9,0.2c-9.1-1.3-18.2-2.9-27.3-4.4
				c-6.8-1.1-13.5-2.4-20.3-3.6c-2.4-0.4-4.7-1-6.9-2.1c-1.9-1-2.6-3-1.8-5c0.5-1.1,1.3-1.8,2.5-2
				C374.9,225.7,376.7,225.6,378.3,225.8z"/>
			<path d="M374.2,157.6c-2.6,0-4.5-2.2-4.1-4.5c0.1-0.7,0.5-1.1,0.9-1.6c1.4-1.4,3-2.6,4.6-3.7c4.4-3.1,9.1-5.8,13.7-8.6
				c8.5-5,17-10,25.9-14.2c2.2-1,4.4-2,6.7-2.7c1.7-0.5,3.4-0.5,5.1,0.1c2.5,0.9,3.2,3,1.8,5.3c-0.5,0.9-1.2,1.6-2,2.3
				c-1.3,1.2-2.8,2.1-4.3,2.9c-13.6,7.5-27.2,14.9-41,22c-2,1.1-4.1,2-6.4,2.5C374.7,157.4,374.4,157.5,374.2,157.6z"/>
			<path d="M57.3,153.5c2.1,0,4,0.6,5.9,1.3c8,3,15.8,6.2,23.7,9.4c6.8,2.7,13.5,5.5,20.3,8.3c2.2,0.9,4.4,2,6.3,3.5
				c1.5,1.3,1.9,3,1.2,4.7c-0.7,1.6-1.7,2.2-3.5,2.1c-2.1-0.2-4.1-0.7-6.1-1.3c-14.7-4.6-29.1-9.7-43.1-16c-1.9-0.9-3.8-1.9-5.6-3.1
				c-1.3-0.9-2.4-2.1-3-3.5c-1.3-3,0.1-5.2,3.3-5.3C56.9,153.5,57.1,153.5,57.3,153.5z"/>
			<path d="M59.6,264.1c-1.3,0.1-2.8-0.1-4.3-0.8c-3.4-1.7-3.7-4.8-0.6-6.9c1.8-1.3,3.9-1.9,6.1-2.4c8.6-2.1,17.3-3.9,26-5.7
				c6.8-1.5,13.6-2.8,20.5-4.2c2.2-0.5,4.4-0.7,6.7-0.5c2.1,0.2,3.3,1.3,3.7,3.3c0.3,1.7-0.1,2.6-1.6,3.5c-2.3,1.3-4.8,2.2-7.4,2.9
				c-13.7,4-27.5,7.6-41.6,10.1C64.8,263.7,62.4,264.1,59.6,264.1z"/>
			<path d="M354.4,47.9c0,2.1-0.7,4.1-1.6,6c-1.5,3.3-3.1,6.5-4.7,9.7c-5.3,10.6-10.6,21.3-16,31.8c-1,1.9-2,3.9-3.4,5.7
				c-0.6,0.8-1.2,1.6-2.1,2.2c-1.4,1-2.9,0.9-4.3,0c-1.3-0.8-1.8-1.9-1.5-3.4c0.3-1.9,0.9-3.7,1.6-5.5c2.7-7.3,6-14.3,9.2-21.4
				c3-6.7,6.2-13.3,9.9-19.8c1.2-2.2,2.5-4.4,4.1-6.4c1.1-1.4,2.4-2.4,4.1-2.9c2.8-0.8,4.7,0.5,4.7,3.4
				C354.4,47.5,354.4,47.7,354.4,47.9z"/>
			<path d="M321.6,318.6c0.2-11.5,4.8-21.4,11.8-30.3c3.5-4.5,7.5-8.5,11.8-12.3c0.8-0.8,1.8-1.2,2.9-1.1c1.3,0.1,1.7,0.6,1.4,1.9
				c-0.5,1.9-1.3,3.7-2.2,5.5c-1.6,3.2-3.5,6.3-5.4,9.3c-4.6,7.4-8.7,14.9-11.7,23.1c-0.9,2.4-1.6,4.8-2.2,7.2
				c-0.3,1.3-1,2.5-1.8,3.6c-1.1,1.5-2.5,1.4-3.5-0.2c-0.5-0.7-0.7-1.5-0.8-2.4c-0.1-1.1-0.2-2.1-0.2-3.2
				C321.6,319.4,321.6,319,321.6,318.6z"/>
			<path d="M194.8,342.7c0,2.9-0.4,5.6-1.3,8.2c-0.3,1-1,1.3-1.9,1.4c-0.8,0.1-1.3-0.2-1.6-0.9c-0.5-1.2-1-2.4-1-3.7
				c-0.2-6.5-2.5-12.4-5.6-18c-1.6-3-3.3-5.9-4.9-8.9c-0.5-0.8-1.1-1.5-1.7-2.3c-1.5-1.9-3.1-3.7-4.6-5.6c-0.2-0.3-0.5-0.5-0.6-0.8
				c-0.4-0.7-0.4-1.4,0-2.1c0.4-0.7,1.1-0.8,1.8-0.7c1.1,0.2,2.2,0.4,3.2,0.9c1.5,0.7,2.7,1.5,3.9,2.6c2.6,2.3,5,4.8,6.8,7.9
				c2.8,4.7,5.4,9.5,6.7,14.9C194.5,338,194.8,340.4,194.8,342.7z"/>
		</g>
	</g>
	<g>
		<g>
			<path d="M194.5,249.9c-1.1,5.2,0.9,10.3,3.1,14.9c2.6,5.5,6,10.5,8.8,15.8c1.4,2.7,2.6,5.5,4.4,8c1.9,2.7,4.2,5.1,6.6,7.4
				c5,4.9,11.3,10.8,13.1,17.9c1.2,4.6,0.3,9.7,0.3,14.4c0,4.9,0.2,9.8,0.6,14.7c0.2,2.6,4.3,2.6,4.1,0c-0.4-4.1-0.6-8.2-0.6-12.3
				c0-4.2,0.4-8.5,0.2-12.7c-0.3-7.5-4.2-13-8.9-18.6c-4.5-5.3-10.3-9.6-13.8-15.8c-2.7-5-5.4-10-8.1-14.9c-2.8-4.9-7-11.6-5.8-17.6
				C199,248.5,195.1,247.4,194.5,249.9L194.5,249.9z"/>
		</g>
	</g>
	<g>
		<g>
			<path d="M293.6,222.7c2.1,10.1,4,20.3,0.4,30.3c-3.1,8.6-8.4,16.2-11.7,24.6c-6.6,16.9-8.2,35.6-4.8,53.4
				c0.5,2.6,4.4,1.5,3.9-1.1c-3.5-18.3-1.3-37.7,6.3-54.8c3.6-8.2,9-15.7,11.3-24.5c2.5-9.6,0.6-19.6-1.4-29.1
				C297,219,293,220.1,293.6,222.7L293.6,222.7z"/>
		</g>
	</g>
	<g>
		<g>
			<path d="M243,212.7c0.6-1.9,1.2-3.8,1.9-5.7c0.9-2.7,1.8-5.3,3.2-7.5c1-1.6,2.2-2.8,4-3.1c2-0.3,3.1,1,3.8,3
				c0.8,2.4,0.7,4.8,0.5,7.2c0,0.4,0,0.7,0,1.1c0.2,0,0.2-0.2,0.3-0.3c0.8-2.7,1.6-5.3,2.8-7.7c1.1-2.1,2.2-4.1,4.6-4.4
				c2.1-0.3,3.5,0.9,4.2,3.2c0.7,2.3,0.7,4.5,0.7,6.8c0,3.1-0.4,6.2-0.6,9.3c-0.1,2.2-0.3,4.5,0,6.7c0.1,0.9,0.3,1.7,0.8,2.5
				c0.5,0.8,1.3,0.6,1.9-0.4c0.9-1.6,1.5-3.3,2-5.1c1-3.6,1.9-7.1,2.7-10.6c0.2-0.9,0-1.8,0-2.7c-0.2-2-0.3-3.9-0.7-5.9
				c-0.1-0.7-0.4-1.4-0.6-2c-0.8-2.2-0.1-2.4,1.5-2.2c1.7,0.2,3,1.6,3.9,3.5c0.6,1.4,1,2.9,1.4,4.4c0.2-0.6,0.3-1.2,0.5-1.8
				c0.7-2.4,1.8-4.5,3.5-5.8c1.3-1,3-1.4,5.2-0.5c1.6,0.7,2.8,1.9,3.9,3.4c2.2,3,3.1,5.8,3.8,8.6c0.6,2.6,0.8,5,0.6,7.4
				c0,0.6-0.1,1.3-0.2,2c0.7-0.4,1-1,1.3-1.5c1.7-2.4,3.2-4.7,3.7-7.6c0-0.2,0.1-0.3,0.2-0.5c0.2-0.4,1.3-0.1,1.7,0.4
				c0.1,0.2,0,0.2,0,0.3c-0.2,1.9-0.8,3.5-1.7,5.1c-0.7,1.4-1.5,2.7-2.5,4c-0.9,1.2-1.9,2.3-3.1,3.3c-2.1,1.8-4.5,3.6-7.8,4.4
				c-2.2,0.5-4.3,0.2-6.5-1c-0.1-0.1-0.3-0.2-0.5-0.1c-0.1,0.1,0,0.3,0,0.4c0.2,2.7,0.4,5.3,0.7,8c0.4,3.6,0.7,7.2,1.5,10.8
				c0.4,1.9,1.1,3.8,2,5.5c0.4,0.8,0.1,1.3-0.9,1.5c-1.9,0.4-3.2-0.5-4.3-1.7c-2.2-2.5-3-5.6-3.6-8.7c-0.6-3.4-0.9-6.8-1.2-10.2
				c-0.4-3.7-0.6-7.5-0.8-11.2c-0.1-1.1-0.2-2.3-0.3-3.6c-0.3,1.3-0.6,2.4-0.9,3.6c-0.7,2.6-1.5,5.1-2.8,7.4c-0.6,1-1.2,1.9-2.1,2.7
				c-1.2,1-4.4,1.7-6.1-0.3c-0.9-1.2-1.5-2.6-1.7-4.1c-0.5-3.5-0.3-7,0-10.4c0.3-3.6,0.7-7.2,1-10.7c0-0.4,0-0.9,0-1.3
				c0-0.4,0.1-0.8-0.4-1c-0.4-0.1-0.7,0.1-0.9,0.3c-1.2,1.2-1.8,2.9-2.5,4.5c-1.4,3.5-2.2,7.4-3.5,11.1c-1.3,3.4-1.5,7-1.2,10.7
				c0.1,1.5,0.6,3,1.5,4.2c0.7,0.9,0.5,1.3-0.6,1.6c-1.8,0.5-3.5,0.2-4.7-1.3c-1-1.2-1.4-2.8-1.6-4.4c-0.5-3.1-0.2-6.1,0-9.2
				c0.2-3.2,0.7-6.4,1.1-9.6c0.2-1.7,0.4-3.4,0.4-5.1c0-0.4,0.1-1-0.3-1.2c-0.4-0.2-0.8,0.2-1.1,0.6c-1.3,1.6-2,3.6-2.8,5.6
				c-1.5,3.6-2.4,7.4-3.6,11.2c-1.3,4.3-1.1,8.7-0.4,13c0.2,0.9,0.5,1.7,0.8,2.5c0.3,0.7,0.1,1.2-0.6,1.4c-2.6,0.8-4.4-0.4-5.4-3
				c-0.5-1.3-0.8-2.8-1-4.2c-0.2-1.4-0.3-2.9-0.3-4.4c-0.3,0.1-0.3,0.3-0.3,0.5c-1,3.4-2,6.9-3.6,10.2c-0.8,1.7-1.7,3.2-3.1,4.3
				c-2.4,1.9-4.2,1.8-5.6-0.7c-1.1-2-1.5-4.4-1.7-6.9c-0.4,0.2-0.4,0.7-0.5,1c-1,2.6-2,5.1-3.5,7.4c-1.4,2.2-2.9,4.2-5.1,5.4
				c-2,1.1-4,1.2-5.5-0.2c-1.2-1.1-1.6-2.8-1.9-4.6c0-0.1,0-0.1,0-0.2c-0.1-0.2,0-0.7-0.2-0.8c-0.4,0-0.4,0.5-0.5,0.8
				c-1,2.3-2,4.7-3.4,6.8c-1.7,2.6-3.8,4.3-6.5,4.5c-2.1,0.1-3.5-1-4.4-2.8c-1.4-3-1.6-6.4-1.5-10.1c0.2-4.5,0.7-9,1.4-13.5
				c0.9-6,2.2-11.9,4.2-17.9c0.9-2.5,2-5,3.4-7.2c0.9-1.4,2.1-2.6,3.4-3.1c1.4-0.5,2.2,0.4,2.7,1.7c1.1,2.7,0.9,5.8,0.3,9.1
				c-0.4,2.5-1.2,4.8-2,7.2c-1.2,3.3-2.6,6.5-4.3,9.5c-0.8,1.5-1.6,3-2.6,4.4c-0.2,0.3-0.4,0.7-0.4,1.2c-0.5,3.9-0.9,7.8-0.7,11.6
				c0.1,1.6,0.2,3.3,1.1,4.5c0.6,0.8,1.1,1,2.1,0.5c1.1-0.6,2-1.5,2.8-2.7c2.9-4.6,4.4-9.6,5.8-14.6c0.5-1.9,0.9-3.8,1.6-5.7
				c1.4-3.9,2.9-7.8,5.1-11.2c1.6-2.4,3.3-4.5,5.5-5.6c2.4-1.2,4.5-1,6.4,0.9c2,2,2.8,4.8,3,8c0.1,1.6-0.2,2.2-1.1,2.5
				c-0.6,0.2-0.9,0-0.9-0.8c0.1-2.1-0.3-4.1-1.2-5.7c-1.3-2.2-3.4-2.4-5.2-0.2c-2.1,2.4-3.2,5.4-4.2,8.5c-1.3,4-2.2,8.1-2.9,12.3
				c-0.3,1.9-0.4,3.9-0.1,5.7c0.2,0.9,0.5,1.7,1.3,1.8c1,0.2,1.7-0.4,2.4-1.2c1.4-1.7,2.3-3.7,3.1-5.8c1.3-3,2.2-6.1,3-9.3
				c0.3-1.1,0.6-2.3,0.3-3.4c-0.1-0.6,0.3-0.8,0.6-1c1.7-0.9,3.4-1,4.8,0.3c0.7,0.7,1,1.9,1,3.1c0.1,2.4-0.2,4.9,0,7.4
				c0.1,1.2,0.1,2.5,0.5,3.7c0.1,0.3,0.2,0.6,0.6,0.6c0.3,0,0.4-0.3,0.6-0.6c1.1-1.7,1.6-3.7,2.3-5.6c1.6-4.4,2.7-8.9,3.8-13.3
				c0.3-1.3,0.2-2.7,0.2-4.1c0-2,0.2-4-0.2-6c-0.1-0.6-0.3-1.1-0.4-1.7c-0.3-1.1-0.1-1.6,0.7-1.9c1.5-0.5,3.1-0.5,4.3,0.9
				c0.9,1,1.2,2.5,1.4,3.9C243.2,208.1,243,210.4,243,212.7z M292.1,211.3c-0.1-1.4-0.3-2.8-0.6-4.3c-0.4-2.1-0.9-4.3-2-6.5
				c-1-1.9-2.6-2.9-4-1.7c-0.7,0.6-1.2,1.5-1.5,2.4c-0.7,1.6-1.1,3.4-1.3,5.3c-0.2,2-0.6,4-0.4,6.1c0.2,2,0.5,4,0.6,6.1
				c0,1,0.5,1.5,1.3,2c0.1,0.1,0.2,0.1,0.3,0.2c1.4,0.8,2.9,1.2,4.3,0.7c1.5-0.5,2.2-1.7,2.6-3.1
				C292.2,216.2,292.2,213.8,292.1,211.3z M196.3,224.9c1.5-2.5,2.7-4.9,3.8-7.4c1.8-4.3,3.3-8.6,3.5-13.1c0.1-1.3,0-2.7-0.5-3.8
				c-0.3-0.7-0.6-0.6-1.1,0.1c-0.8,1.2-1.2,2.6-1.7,4c-1.1,3.5-1.9,7-2.5,10.5C197.2,218.3,196.6,221.5,196.3,224.9z"/>
		</g>
	</g>
</g>
</svg>
